<svg version="1.1" xmlns="http://www.w3.org/2000/svg" xmlns:xlink="http://www.w3.org/1999/xlink" width="414" height="587"><desc>frame%20Create%20a%20Tournament%0A%0Aactor%20Educator%0A%0Aactivate%20Educator%0AEducator-%3ESystem%3A%20requestTournamentCreationPage()%0Aactivate%20System%0ASystem--%3EEducator%3A%20returnTournamentCreationPage()%0Adeactivate%20System%0A%0AEducator-%3ESystem%3A%20createTournament()%0Aactivate%20System%0ASystem--%3EEducator%3A%20returnTournamentForm()%0Adeactivate%20System%0A%0AEducator-%3EEducator%3A%20compileTournamentForm()%0AEducator-%3EEducator%3A%20defineBadges()%0Aactivate%20System%0AEducator-%3ESystem%3A%20sendTournamentForm()%0ASystem--%3EEducator%3A%20ack%0Adeactivate%20System%0Adeactivate%20Educator</desc><defs/><g><g/><g/><g/><g/><g/><g/><g/><g/><g><rect fill="white" stroke="none" x="0" y="0" width="414" height="587"/></g><g/><g><path fill="none" stroke="black" paint-order="fill stroke markers" d=" M 60.995554250175786 126.434473542 L 60.995554250175786 556.1759757420001" stroke-miterlimit="10" stroke-width="1.2565541" stroke-dasharray="11.598960923076923,5.0262164"/><path fill="none" stroke="black" paint-order="fill stroke markers" d=" M 341.95255952810544 126.434473542 L 341.95255952810544 556.1759757420001" stroke-miterlimit="10" stroke-width="1.2565541" stroke-dasharray="11.598960923076923,5.0262164"/></g><g><g><path fill="white" stroke="black" paint-order="fill stroke markers" d=" M 69.59038429417579 62.65178742599999 A 8.594830044 8.594830044 0 1 1 69.59037999676113 62.643192597388456 M 60.995554250175786 71.24661746999999 L 60.995554250175786 89.64256949399999 M 50.13892682617578 77.881223118 L 71.85218167417578 77.881223118 M 60.995554250175786 89.64256949399999 L 50.13892682617578 106.832229582 M 60.995554250175786 89.64256949399999 L 71.85218167417578 106.832229582" stroke-miterlimit="10" stroke-width="2.5633703640000003" stroke-dasharray=""/></g><g><g/><text fill="black" stroke="none" font-family="sans-serif" font-size="11pt" font-style="normal" font-weight="normal" text-decoration="normal" x="31.665163320000005" y="121.91087878200001" text-anchor="start" dominant-baseline="alphabetic" xml:space="preserve">Educator</text></g><path fill="none" stroke="none"/><g><path fill="white" stroke="black" paint-order="fill stroke markers" d=" M 301.16037089805855 85.722120702 L 382.7447481581523 85.722120702 L 382.7447481581523 126.434473542 L 301.16037089805855 126.434473542 L 301.16037089805855 85.722120702 Z" stroke-miterlimit="10" stroke-width="2.4125838720000004" stroke-dasharray=""/></g><g><g/><text fill="black" stroke="none" font-family="sans-serif" font-size="11pt" font-style="normal" font-weight="normal" text-decoration="normal" x="317.52070528005856" y="111.35582434200002" text-anchor="start" dominant-baseline="alphabetic" xml:space="preserve">System</text></g></g><g><path fill="white" stroke="black" paint-order="fill stroke markers" d=" M 53.456229650175786 133.97379814200002 L 68.53487885017579 133.97379814200002 L 68.53487885017579 510.9400281420001 L 53.456229650175786 510.9400281420001 L 53.456229650175786 133.97379814200002" stroke-miterlimit="10" stroke-width="1.2565541" stroke-dasharray=""/><path fill="white" stroke="black" paint-order="fill stroke markers" d=" M 334.41323492810545 176.19401590200002 L 349.4918841281054 176.19401590200002 L 349.4918841281054 218.41423366200002 L 334.41323492810545 218.41423366200002 L 334.41323492810545 176.19401590200002" stroke-miterlimit="10" stroke-width="1.2565541" stroke-dasharray=""/><path fill="white" stroke="black" paint-order="fill stroke markers" d=" M 334.41323492810545 260.63445142200004 L 349.4918841281054 260.63445142200004 L 349.4918841281054 302.85466918200007 L 334.41323492810545 302.85466918200007 L 334.41323492810545 260.63445142200004" stroke-miterlimit="10" stroke-width="1.2565541" stroke-dasharray=""/><path fill="white" stroke="black" paint-order="fill stroke markers" d=" M 334.41323492810545 426.499592622 L 349.4918841281054 426.499592622 L 349.4918841281054 510.9400281420001 L 334.41323492810545 510.9400281420001 L 334.41323492810545 426.499592622" stroke-miterlimit="10" stroke-width="1.2565541" stroke-dasharray=""/><g><g/><g/><path fill="none" stroke="black" paint-order="fill stroke markers" d=" M 7.5393246000000005 7.5393246000000005 L 406.87058687815227 7.5393246000000005 L 406.87058687815227 580.3018144620002 L 7.5393246000000005 580.3018144620002 L 7.5393246000000005 7.5393246000000005 Z" stroke-miterlimit="10" stroke-width="1.2565541" stroke-dasharray=""/><path fill="white" stroke="black" paint-order="fill stroke markers" d=" M 7.5393246000000005 7.5393246000000005 L 7.5393246000000005 28.64943348 L 196.55335822949218 28.64943348 L 207.10841266949217 18.09437904 L 207.10841266949217 7.5393246000000005 L 7.5393246000000005 7.5393246000000005" stroke-miterlimit="10" stroke-width="1.2565541" stroke-dasharray=""/><text fill="black" stroke="none" font-family="sans-serif" font-size="11pt" font-style="normal" font-weight="bold" text-decoration="normal" x="22.6179738" y="21.86404134" text-anchor="start" dominant-baseline="alphabetic" xml:space="preserve">sd</text><text fill="black" stroke="none" font-family="sans-serif" font-size="11pt" font-style="normal" font-weight="normal" text-decoration="normal" x="43.79367875605469" y="21.86404134" text-anchor="start" dominant-baseline="alphabetic" xml:space="preserve">Create a Tournament</text></g><g><g><rect fill="white" stroke="none" x="86.37794707017578" y="156.591771942" width="230.1922196379297" height="19.602243960000003"/></g><text fill="black" stroke="none" font-family="sans-serif" font-size="11pt" font-style="normal" font-weight="normal" text-decoration="normal" x="88.63974445017578" y="170.162556222" text-anchor="start" dominant-baseline="alphabetic" xml:space="preserve">requestTournamentCreationPage()</text></g><g><path fill="none" stroke="black" paint-order="fill stroke markers" d=" M 68.53487885017579 176.19401590200002 L 321.99848042010547 176.19401590200002" stroke-miterlimit="10" stroke-width="1.2565541" stroke-dasharray=""/><g transform="translate(334.41323492810545,176.19401590200002) translate(-334.41323492810545,-176.19401590200002)"><path fill="black" stroke="none" paint-order="stroke fill markers" d=" M 321.84769392810546 169.91124540200002 L 334.41323492810545 176.19401590200002 L 321.84769392810546 182.47678640200002 Z"/></g></g><g><g><rect fill="white" stroke="none" x="91.67724058824219" y="198.811989702" width="219.59363260179688" height="19.602243960000003"/></g><text fill="black" stroke="none" font-family="sans-serif" font-size="11pt" font-style="normal" font-weight="normal" text-decoration="normal" x="93.93903796824219" y="212.382773982" text-anchor="start" dominant-baseline="alphabetic" xml:space="preserve">returnTournamentCreationPage()</text></g><g><path fill="none" stroke="black" paint-order="fill stroke markers" d=" M 334.41323492810545 218.41423366200002 L 80.94963335817579 218.41423366200002" stroke-miterlimit="10" stroke-width="1.2565541" stroke-dasharray="6.03145968"/><g transform="translate(68.53487885017579,218.41423366200002) translate(-68.53487885017579,-218.41423366200002)"><path fill="black" stroke="none" paint-order="stroke fill markers" d=" M 81.10041985017578 212.13146316200002 L 68.53487885017579 218.41423366200002 L 81.10041985017578 224.697004162 Z"/></g></g><g><g><rect fill="white" stroke="none" x="135.26670286851564" y="241.03220746200003" width="132.41470804125" height="19.602243960000003"/></g><text fill="black" stroke="none" font-family="sans-serif" font-size="11pt" font-style="normal" font-weight="normal" text-decoration="normal" x="137.52850024851563" y="254.60299174200003" text-anchor="start" dominant-baseline="alphabetic" xml:space="preserve">createTournament()</text></g><g><path fill="none" stroke="black" paint-order="fill stroke markers" d=" M 68.53487885017579 260.63445142200004 L 321.99848042010547 260.63445142200004" stroke-miterlimit="10" stroke-width="1.2565541" stroke-dasharray=""/><g transform="translate(334.41323492810545,260.63445142200004) translate(-334.41323492810545,-260.63445142200004)"><path fill="black" stroke="none" paint-order="stroke fill markers" d=" M 321.84769392810546 254.35168092200004 L 334.41323492810545 260.63445142200004 L 321.84769392810546 266.91722192200007 Z"/></g></g><g><g><rect fill="white" stroke="none" x="119.3938696165625" y="283.25242522200006" width="164.16037454515626" height="19.602243960000003"/></g><text fill="black" stroke="none" font-family="sans-serif" font-size="11pt" font-style="normal" font-weight="normal" text-decoration="normal" x="121.6556669965625" y="296.82320950200005" text-anchor="start" dominant-baseline="alphabetic" xml:space="preserve">returnTournamentForm()</text></g><g><path fill="none" stroke="black" paint-order="fill stroke markers" d=" M 334.41323492810545 302.85466918200007 L 80.94963335817579 302.85466918200007" stroke-miterlimit="10" stroke-width="1.2565541" stroke-dasharray="6.03145968"/><g transform="translate(68.53487885017579,302.85466918200007) translate(-68.53487885017579,-302.85466918200007)"><path fill="black" stroke="none" paint-order="stroke fill markers" d=" M 81.10041985017578 296.57189868200004 L 68.53487885017579 302.85466918200007 L 81.10041985017578 309.1374396820001 Z"/></g></g><g><g><rect fill="white" stroke="none" x="86.37794707017578" y="325.472642982" width="176.3763016691797" height="19.602243960000003"/></g><text fill="black" stroke="none" font-family="sans-serif" font-size="11pt" font-style="normal" font-weight="normal" text-decoration="normal" x="88.63974445017578" y="339.043427262" text-anchor="start" dominant-baseline="alphabetic" xml:space="preserve">compileTournamentForm()</text></g><g><path fill="none" stroke="black" paint-order="fill stroke markers" d=" M 68.53487885017579 345.07488694200003 L 128.8494756501758 345.07488694200003 L 128.8494756501758 364.67713090200004 L 80.94963335817579 364.67713090200004" stroke-miterlimit="10" stroke-width="1.2565541" stroke-dasharray=""/><g transform="translate(68.53487885017579,364.67713090200004) translate(-68.53487885017579,-364.67713090200004)"><path fill="black" stroke="none" paint-order="stroke fill markers" d=" M 81.10041985017578 358.394360402 L 68.53487885017579 364.67713090200004 L 81.10041985017578 370.95990140200007 Z"/></g></g><g><g><rect fill="white" stroke="none" x="86.37794707017578" y="387.295104702" width="103.92560281664062" height="19.602243960000003"/></g><text fill="black" stroke="none" font-family="sans-serif" font-size="11pt" font-style="normal" font-weight="normal" text-decoration="normal" x="88.63974445017578" y="400.865888982" text-anchor="start" dominant-baseline="alphabetic" xml:space="preserve">defineBadges()</text></g><g><path fill="none" stroke="black" paint-order="fill stroke markers" d=" M 68.53487885017579 406.897348662 L 128.8494756501758 406.897348662 L 128.8494756501758 426.499592622 L 80.94963335817579 426.499592622" stroke-miterlimit="10" stroke-width="1.2565541" stroke-dasharray=""/><g transform="translate(68.53487885017579,426.499592622) translate(-68.53487885017579,-426.499592622)"><path fill="black" stroke="none" paint-order="stroke fill markers" d=" M 81.10041985017578 420.216822122 L 68.53487885017579 426.499592622 L 81.10041985017578 432.78236312200005 Z"/></g></g><g><g><rect fill="white" stroke="none" x="122.64644072251953" y="449.11756642200004" width="157.6552323332422" height="19.602243960000003"/></g><text fill="black" stroke="none" font-family="sans-serif" font-size="11pt" font-style="normal" font-weight="normal" text-decoration="normal" x="124.90823810251953" y="462.6883507020001" text-anchor="start" dominant-baseline="alphabetic" xml:space="preserve">sendTournamentForm()</text></g><g><path fill="none" stroke="black" paint-order="fill stroke markers" d=" M 68.53487885017579 468.71981038200005 L 321.99848042010547 468.71981038200005" stroke-miterlimit="10" stroke-width="1.2565541" stroke-dasharray=""/><g transform="translate(334.41323492810545,468.71981038200005) translate(-334.41323492810545,-468.71981038200005)"><path fill="black" stroke="none" paint-order="stroke fill markers" d=" M 321.84769392810546 462.437039882 L 334.41323492810545 468.71981038200005 L 321.84769392810546 475.0025808820001 Z"/></g></g><g><g><rect fill="white" stroke="none" x="187.80858061509767" y="491.33778418200006" width="27.33095254808594" height="19.602243960000003"/></g><text fill="black" stroke="none" font-family="sans-serif" font-size="11pt" font-style="normal" font-weight="normal" text-decoration="normal" x="190.07037799509766" y="504.90856846200006" text-anchor="start" dominant-baseline="alphabetic" xml:space="preserve">ack</text></g><g><path fill="none" stroke="black" paint-order="fill stroke markers" d=" M 334.41323492810545 510.9400281420001 L 80.94963335817579 510.9400281420001" stroke-miterlimit="10" stroke-width="1.2565541" stroke-dasharray="6.03145968"/><g transform="translate(68.53487885017579,510.9400281420001) translate(-68.53487885017579,-510.9400281420001)"><path fill="black" stroke="none" paint-order="stroke fill markers" d=" M 81.10041985017578 504.65725764200005 L 68.53487885017579 510.9400281420001 L 81.10041985017578 517.222798642 Z"/></g></g></g><g/><g/></g></svg>