<svg version="1.1" xmlns="http://www.w3.org/2000/svg" xmlns:xlink="http://www.w3.org/1999/xlink" width="590" height="541"><desc>frame%20Close%20a%20Tournament%0A%0Aactor%20Educator%0A%0A%0Aactivate%20Educator%0AEducator-%3ESystem%3A%20requestTournamentPage()%0Aactivate%20System%0ASystem--%3EEducator%3A%20returnTournamentPage()%0Adeactivate%20System%0A%0Aactor%20Student%0A%0AEducator-%3ESystem%3A%20closeTournament()%0Aactivate%20System%0ASystem-%3ESystem%3A%20compute%20rank%5Cnand%20awards%0ASystem-%3EStudent%3A%20awardStudent()%0ASystem-%3EStudent%3A%20notifyStudentEndTournament()%0ASystem--%3EEducator%3A%20ack%0Adeactivate%20System%0Adeactivate%20Educator</desc><defs/><g><g/><g/><g/><g/><g/><g/><g/><g/><g><rect fill="white" stroke="none" x="0" y="0" width="590" height="541"/></g><g/><g><path fill="none" stroke="black" paint-order="fill stroke markers" d=" M 60.995554250175786 126.434473542 L 60.995554250175786 509.4321632220001" stroke-miterlimit="10" stroke-width="1.2565541" stroke-dasharray="11.598960923076923,5.0262164"/><path fill="none" stroke="black" paint-order="fill stroke markers" d=" M 286.5550833318164 126.434473542 L 286.5550833318164 509.4321632220001" stroke-miterlimit="10" stroke-width="1.2565541" stroke-dasharray="11.598960923076923,5.0262164"/><path fill="none" stroke="black" paint-order="fill stroke markers" d=" M 533.0934305136523 126.434473542 L 533.0934305136523 509.4321632220001" stroke-miterlimit="10" stroke-width="1.2565541" stroke-dasharray="11.598960923076923,5.0262164"/></g><g><g><path fill="white" stroke="black" paint-order="fill stroke markers" d=" M 69.59038429417579 62.65178742599999 A 8.594830044 8.594830044 0 1 1 69.59037999676113 62.643192597388456 M 60.995554250175786 71.24661746999999 L 60.995554250175786 89.64256949399999 M 50.13892682617578 77.881223118 L 71.85218167417578 77.881223118 M 60.995554250175786 89.64256949399999 L 50.13892682617578 106.832229582 M 60.995554250175786 89.64256949399999 L 71.85218167417578 106.832229582" stroke-miterlimit="10" stroke-width="2.5633703640000003" stroke-dasharray=""/></g><g><g/><text fill="black" stroke="none" font-family="sans-serif" font-size="11pt" font-style="normal" font-weight="normal" text-decoration="normal" x="31.665163320000005" y="121.91087878200001" text-anchor="start" dominant-baseline="alphabetic" xml:space="preserve">Educator</text></g><path fill="none" stroke="none"/><g><path fill="white" stroke="black" paint-order="fill stroke markers" d=" M 245.7628947017695 85.722120702 L 327.34727196186327 85.722120702 L 327.34727196186327 126.434473542 L 245.7628947017695 126.434473542 L 245.7628947017695 85.722120702 Z" stroke-miterlimit="10" stroke-width="2.4125838720000004" stroke-dasharray=""/></g><g><g/><text fill="black" stroke="none" font-family="sans-serif" font-size="11pt" font-style="normal" font-weight="normal" text-decoration="normal" x="262.1232290837695" y="111.35582434200002" text-anchor="start" dominant-baseline="alphabetic" xml:space="preserve">System</text></g><g><path fill="white" stroke="black" paint-order="fill stroke markers" d=" M 541.6882605576523 62.65178742599999 A 8.594830044 8.594830044 0 1 1 541.6882562602376 62.643192597388456 M 533.0934305136523 71.24661746999999 L 533.0934305136523 89.64256949399999 M 522.2368030896523 77.881223118 L 543.9500579376522 77.881223118 M 533.0934305136523 89.64256949399999 L 522.2368030896523 106.832229582 M 533.0934305136523 89.64256949399999 L 543.9500579376522 106.832229582" stroke-miterlimit="10" stroke-width="2.5633703640000003" stroke-dasharray=""/></g><g><g/><text fill="black" stroke="none" font-family="sans-serif" font-size="11pt" font-style="normal" font-weight="normal" text-decoration="normal" x="507.83143710544914" y="121.91087878200001" text-anchor="start" dominant-baseline="alphabetic" xml:space="preserve">Student</text></g></g><g><path fill="white" stroke="black" paint-order="fill stroke markers" d=" M 53.456229650175786 133.97379814200002 L 68.53487885017579 133.97379814200002 L 68.53487885017579 464.1962156220001 L 53.456229650175786 464.1962156220001 L 53.456229650175786 133.97379814200002" stroke-miterlimit="10" stroke-width="1.2565541" stroke-dasharray=""/><path fill="white" stroke="black" paint-order="fill stroke markers" d=" M 279.0157587318164 176.19401590200002 L 294.09440793181636 176.19401590200002 L 294.09440793181636 218.41423366200002 L 279.0157587318164 218.41423366200002 L 279.0157587318164 176.19401590200002" stroke-miterlimit="10" stroke-width="1.2565541" stroke-dasharray=""/><path fill="white" stroke="black" paint-order="fill stroke markers" d=" M 279.0157587318164 260.63445142200004 L 294.09440793181636 260.63445142200004 L 294.09440793181636 464.1962156220001 L 279.0157587318164 464.1962156220001 L 279.0157587318164 260.63445142200004" stroke-miterlimit="10" stroke-width="1.2565541" stroke-dasharray=""/><g><g/><g/><path fill="none" stroke="black" paint-order="fill stroke markers" d=" M 7.5393246000000005 7.5393246000000005 L 582.4812626418554 7.5393246000000005 L 582.4812626418554 533.5580019420001 L 7.5393246000000005 533.5580019420001 L 7.5393246000000005 7.5393246000000005 Z" stroke-miterlimit="10" stroke-width="1.2565541" stroke-dasharray=""/><path fill="white" stroke="black" paint-order="fill stroke markers" d=" M 7.5393246000000005 7.5393246000000005 L 7.5393246000000005 28.64943348 L 190.0339032734375 28.64943348 L 200.58895771343748 18.09437904 L 200.58895771343748 7.5393246000000005 L 7.5393246000000005 7.5393246000000005" stroke-miterlimit="10" stroke-width="1.2565541" stroke-dasharray=""/><text fill="black" stroke="none" font-family="sans-serif" font-size="11pt" font-style="normal" font-weight="bold" text-decoration="normal" x="22.6179738" y="21.86404134" text-anchor="start" dominant-baseline="alphabetic" xml:space="preserve">sd</text><text fill="black" stroke="none" font-family="sans-serif" font-size="11pt" font-style="normal" font-weight="normal" text-decoration="normal" x="43.79367875605469" y="21.86404134" text-anchor="start" dominant-baseline="alphabetic" xml:space="preserve">Close a Tournament</text></g><g><g><rect fill="white" stroke="none" x="86.37794707017578" y="156.591771942" width="174.79474344164063" height="19.602243960000003"/></g><text fill="black" stroke="none" font-family="sans-serif" font-size="11pt" font-style="normal" font-weight="normal" text-decoration="normal" x="88.63974445017578" y="170.162556222" text-anchor="start" dominant-baseline="alphabetic" xml:space="preserve">requestTournamentPage()</text></g><g><path fill="none" stroke="black" paint-order="fill stroke markers" d=" M 68.53487885017579 176.19401590200002 L 266.6010042238164 176.19401590200002" stroke-miterlimit="10" stroke-width="1.2565541" stroke-dasharray=""/><g transform="translate(279.0157587318164,176.19401590200002) translate(-279.0157587318164,-176.19401590200002)"><path fill="black" stroke="none" paint-order="stroke fill markers" d=" M 266.4502177318164 169.91124540200002 L 279.0157587318164 176.19401590200002 L 266.4502177318164 182.47678640200002 Z"/></g></g><g><g><rect fill="white" stroke="none" x="91.67724058824219" y="198.811989702" width="164.19615640550782" height="19.602243960000003"/></g><text fill="black" stroke="none" font-family="sans-serif" font-size="11pt" font-style="normal" font-weight="normal" text-decoration="normal" x="93.93903796824219" y="212.382773982" text-anchor="start" dominant-baseline="alphabetic" xml:space="preserve">returnTournamentPage()</text></g><g><path fill="none" stroke="black" paint-order="fill stroke markers" d=" M 279.0157587318164 218.41423366200002 L 80.94963335817579 218.41423366200002" stroke-miterlimit="10" stroke-width="1.2565541" stroke-dasharray="6.03145968"/><g transform="translate(68.53487885017579,218.41423366200002) translate(-68.53487885017579,-218.41423366200002)"><path fill="black" stroke="none" paint-order="stroke fill markers" d=" M 81.10041985017578 212.13146316200002 L 68.53487885017579 218.41423366200002 L 81.10041985017578 224.697004162 Z"/></g></g><g><g><rect fill="white" stroke="none" x="110.82769224839844" y="241.03220746200003" width="125.89525308519531" height="19.602243960000003"/></g><text fill="black" stroke="none" font-family="sans-serif" font-size="11pt" font-style="normal" font-weight="normal" text-decoration="normal" x="113.08948962839844" y="254.60299174200003" text-anchor="start" dominant-baseline="alphabetic" xml:space="preserve">closeTournament()</text></g><g><path fill="none" stroke="black" paint-order="fill stroke markers" d=" M 68.53487885017579 260.63445142200004 L 266.6010042238164 260.63445142200004" stroke-miterlimit="10" stroke-width="1.2565541" stroke-dasharray=""/><g transform="translate(279.0157587318164,260.63445142200004) translate(-279.0157587318164,-260.63445142200004)"><path fill="black" stroke="none" paint-order="stroke fill markers" d=" M 266.4502177318164 254.35168092200004 L 279.0157587318164 260.63445142200004 L 266.4502177318164 266.91722192200007 Z"/></g></g><g><g><rect fill="white" stroke="none" x="311.9374761518163" y="283.25242522200006" width="93.3198594084375" height="19.602243960000003"/></g><g><rect fill="white" stroke="none" x="311.9374761518163" y="298.33107442200003" width="80.29526224046874" height="19.602243960000003"/></g><text fill="black" stroke="none" font-family="sans-serif" font-size="11pt" font-style="normal" font-weight="normal" text-decoration="normal" x="314.19927353181635" y="296.82320950200005" text-anchor="start" dominant-baseline="alphabetic" xml:space="preserve">compute rank</text><text fill="black" stroke="none" font-family="sans-serif" font-size="11pt" font-style="normal" font-weight="normal" text-decoration="normal" x="314.19927353181635" y="311.901858702" text-anchor="start" dominant-baseline="alphabetic" xml:space="preserve">and awards</text></g><g><path fill="none" stroke="black" paint-order="fill stroke markers" d=" M 294.09440793181636 317.93331838200004 L 354.40900473181637 317.93331838200004 L 354.40900473181637 337.53556234200005 L 306.50916243981635 337.53556234200005" stroke-miterlimit="10" stroke-width="1.2565541" stroke-dasharray=""/><g transform="translate(294.09440793181636,337.53556234200005) translate(-294.09440793181636,-337.53556234200005)"><path fill="black" stroke="none" paint-order="stroke fill markers" d=" M 306.65994893181636 331.252791842 L 294.09440793181636 337.53556234200005 L 306.65994893181636 343.8183328420001 Z"/></g></g><g><g><rect fill="white" stroke="none" x="361.2303609784765" y="360.15353614200006" width="104.72711648851562" height="19.602243960000003"/></g><text fill="black" stroke="none" font-family="sans-serif" font-size="11pt" font-style="normal" font-weight="normal" text-decoration="normal" x="363.4921583584765" y="373.7243204220001" text-anchor="start" dominant-baseline="alphabetic" xml:space="preserve">awardStudent()</text></g><g><path fill="none" stroke="black" paint-order="fill stroke markers" d=" M 294.09440793181636 379.7557801020001 L 520.6786760056523 379.7557801020001" stroke-miterlimit="10" stroke-width="1.2565541" stroke-dasharray=""/><g transform="translate(533.0934305136523,379.7557801020001) translate(-533.0934305136523,-379.7557801020001)"><path fill="black" stroke="none" paint-order="stroke fill markers" d=" M 520.5278895136522 373.47300960200005 L 533.0934305136523 379.7557801020001 L 520.5278895136522 386.0385506020001 Z"/></g></g><g><g><rect fill="white" stroke="none" x="311.9374761518163" y="402.3737539020001" width="203.31288614183595" height="19.602243960000003"/></g><text fill="black" stroke="none" font-family="sans-serif" font-size="11pt" font-style="normal" font-weight="normal" text-decoration="normal" x="314.19927353181635" y="415.9445381820001" text-anchor="start" dominant-baseline="alphabetic" xml:space="preserve">notifyStudentEndTournament()</text></g><g><path fill="none" stroke="black" paint-order="fill stroke markers" d=" M 294.09440793181636 421.9759978620001 L 520.6786760056523 421.9759978620001" stroke-miterlimit="10" stroke-width="1.2565541" stroke-dasharray=""/><g transform="translate(533.0934305136523,421.9759978620001) translate(-533.0934305136523,-421.9759978620001)"><path fill="black" stroke="none" paint-order="stroke fill markers" d=" M 520.5278895136522 415.6932273620001 L 533.0934305136523 421.9759978620001 L 520.5278895136522 428.2587683620001 Z"/></g></g><g><g><rect fill="white" stroke="none" x="160.10984251695314" y="444.5939716620001" width="27.33095254808594" height="19.602243960000003"/></g><text fill="black" stroke="none" font-family="sans-serif" font-size="11pt" font-style="normal" font-weight="normal" text-decoration="normal" x="162.37163989695313" y="458.16475594200017" text-anchor="start" dominant-baseline="alphabetic" xml:space="preserve">ack</text></g><g><path fill="none" stroke="black" paint-order="fill stroke markers" d=" M 279.0157587318164 464.1962156220001 L 80.94963335817579 464.1962156220001" stroke-miterlimit="10" stroke-width="1.2565541" stroke-dasharray="6.03145968"/><g transform="translate(68.53487885017579,464.1962156220001) translate(-68.53487885017579,-464.1962156220001)"><path fill="black" stroke="none" paint-order="stroke fill markers" d=" M 81.10041985017578 457.9134451220001 L 68.53487885017579 464.1962156220001 L 81.10041985017578 470.47898612200015 Z"/></g></g></g><g/><g/><g/></g></svg>