<svg version="1.1" xmlns="http://www.w3.org/2000/svg" xmlns:xlink="http://www.w3.org/1999/xlink" width="528" height="421"><desc>frame%20Grant%20permission%20to%20colleagues%0A%0Aactor%20Educator1%0A%0Aactivate%20Educator1%0AEducator1-%3ESystem%3A%20requestTournamentPage()%0Aactivate%20System%0ASystem--%3EEducator1%3A%20returnTournamentPage()%0Adeactivate%20System%0A%0Aactor%20Educator2%0A%0AEducator1-%3ESystem%3A%20inviteCollaborator()%0Aactivate%20System%0ASystem-%3EEducator2%3A%20notifyCollaborator()%0ASystem--%3EEducator1%3A%20ack%0Adeactivate%20System%0Adeactivate%20Educator1</desc><defs/><g><g/><g/><g/><g/><g/><g><rect fill="white" stroke="none" x="0" y="0" width="528" height="421"/></g><g/><g><path fill="none" stroke="black" paint-order="fill stroke markers" d=" M 65.07110814421875 126.434473542 L 65.07110814421875 390.31083454200007" stroke-miterlimit="10" stroke-width="1.2565541" stroke-dasharray="11.598960923076923,5.0262164"/><path fill="none" stroke="black" paint-order="fill stroke markers" d=" M 290.63063722585935 126.434473542 L 290.63063722585935 390.31083454200007" stroke-miterlimit="10" stroke-width="1.2565541" stroke-dasharray="11.598960923076923,5.0262164"/><path fill="none" stroke="black" paint-order="fill stroke markers" d=" M 463.00791263035154 126.434473542 L 463.00791263035154 390.31083454200007" stroke-miterlimit="10" stroke-width="1.2565541" stroke-dasharray="11.598960923076923,5.0262164"/></g><g><g><path fill="white" stroke="black" paint-order="fill stroke markers" d=" M 73.66593818821876 62.65178742599999 A 8.594830044 8.594830044 0 1 1 73.6659338908041 62.643192597388456 M 65.07110814421875 71.24661746999999 L 65.07110814421875 89.64256949399999 M 54.21448072021875 77.881223118 L 75.92773556821875 77.881223118 M 65.07110814421875 89.64256949399999 L 54.21448072021875 106.832229582 M 65.07110814421875 89.64256949399999 L 75.92773556821875 106.832229582" stroke-miterlimit="10" stroke-width="2.5633703640000003" stroke-dasharray=""/></g><g><g/><text fill="black" stroke="none" font-family="sans-serif" font-size="11pt" font-style="normal" font-weight="normal" text-decoration="normal" x="31.665163320000005" y="121.91087878200001" text-anchor="start" dominant-baseline="alphabetic" xml:space="preserve">Educator1</text></g><path fill="none" stroke="none"/><g><path fill="white" stroke="black" paint-order="fill stroke markers" d=" M 249.83844859581248 85.722120702 L 331.42282585590624 85.722120702 L 331.42282585590624 126.434473542 L 249.83844859581248 126.434473542 L 249.83844859581248 85.722120702 Z" stroke-miterlimit="10" stroke-width="2.4125838720000004" stroke-dasharray=""/></g><g><g/><text fill="black" stroke="none" font-family="sans-serif" font-size="11pt" font-style="normal" font-weight="normal" text-decoration="normal" x="266.19878297781247" y="111.35582434200002" text-anchor="start" dominant-baseline="alphabetic" xml:space="preserve">System</text></g><g><path fill="white" stroke="black" paint-order="fill stroke markers" d=" M 471.60274267435153 62.65178742599999 A 8.594830044 8.594830044 0 1 1 471.6027383769369 62.643192597388456 M 463.00791263035154 71.24661746999999 L 463.00791263035154 89.64256949399999 M 452.15128520635153 77.881223118 L 473.86454005435155 77.881223118 M 463.00791263035154 89.64256949399999 L 452.15128520635153 106.832229582 M 463.00791263035154 89.64256949399999 L 473.86454005435155 106.832229582" stroke-miterlimit="10" stroke-width="2.5633703640000003" stroke-dasharray=""/></g><g><g/><text fill="black" stroke="none" font-family="sans-serif" font-size="11pt" font-style="normal" font-weight="normal" text-decoration="normal" x="429.6019678061328" y="121.91087878200001" text-anchor="start" dominant-baseline="alphabetic" xml:space="preserve">Educator2</text></g></g><g><path fill="white" stroke="black" paint-order="fill stroke markers" d=" M 57.531783544218754 133.97379814200002 L 72.61043274421876 133.97379814200002 L 72.61043274421876 345.0748869420001 L 57.531783544218754 345.0748869420001 L 57.531783544218754 133.97379814200002" stroke-miterlimit="10" stroke-width="1.2565541" stroke-dasharray=""/><path fill="white" stroke="black" paint-order="fill stroke markers" d=" M 283.09131262585936 176.19401590200002 L 298.16996182585933 176.19401590200002 L 298.16996182585933 218.41423366200002 L 283.09131262585936 218.41423366200002 L 283.09131262585936 176.19401590200002" stroke-miterlimit="10" stroke-width="1.2565541" stroke-dasharray=""/><path fill="white" stroke="black" paint-order="fill stroke markers" d=" M 283.09131262585936 260.63445142200004 L 298.16996182585933 260.63445142200004 L 298.16996182585933 345.0748869420001 L 283.09131262585936 345.0748869420001 L 283.09131262585936 260.63445142200004" stroke-miterlimit="10" stroke-width="1.2565541" stroke-dasharray=""/><g><g/><g/><path fill="none" stroke="black" paint-order="fill stroke markers" d=" M 7.5393246000000005 7.5393246000000005 L 520.5396961745703 7.5393246000000005 L 520.5396961745703 414.4366732620001 L 7.5393246000000005 414.4366732620001 L 7.5393246000000005 7.5393246000000005 Z" stroke-miterlimit="10" stroke-width="1.2565541" stroke-dasharray=""/><path fill="white" stroke="black" paint-order="fill stroke markers" d=" M 7.5393246000000005 7.5393246000000005 L 7.5393246000000005 28.64943348 L 260.90386787304686 28.64943348 L 271.45892231304686 18.09437904 L 271.45892231304686 7.5393246000000005 L 7.5393246000000005 7.5393246000000005" stroke-miterlimit="10" stroke-width="1.2565541" stroke-dasharray=""/><text fill="black" stroke="none" font-family="sans-serif" font-size="11pt" font-style="normal" font-weight="bold" text-decoration="normal" x="22.6179738" y="21.86404134" text-anchor="start" dominant-baseline="alphabetic" xml:space="preserve">sd</text><text fill="black" stroke="none" font-family="sans-serif" font-size="11pt" font-style="normal" font-weight="normal" text-decoration="normal" x="43.79367875605469" y="21.86404134" text-anchor="start" dominant-baseline="alphabetic" xml:space="preserve">Grant permission to colleagues</text></g><g><g><rect fill="white" stroke="none" x="90.45350096421875" y="156.591771942" width="174.79474344164063" height="19.602243960000003"/></g><text fill="black" stroke="none" font-family="sans-serif" font-size="11pt" font-style="normal" font-weight="normal" text-decoration="normal" x="92.71529834421875" y="170.162556222" text-anchor="start" dominant-baseline="alphabetic" xml:space="preserve">requestTournamentPage()</text></g><g><path fill="none" stroke="black" paint-order="fill stroke markers" d=" M 72.61043274421876 176.19401590200002 L 270.6765581178594 176.19401590200002" stroke-miterlimit="10" stroke-width="1.2565541" stroke-dasharray=""/><g transform="translate(283.09131262585936,176.19401590200002) translate(-283.09131262585936,-176.19401590200002)"><path fill="black" stroke="none" paint-order="stroke fill markers" d=" M 270.52577162585936 169.91124540200002 L 283.09131262585936 176.19401590200002 L 270.52577162585936 182.47678640200002 Z"/></g></g><g><g><rect fill="white" stroke="none" x="95.75279448228515" y="198.811989702" width="164.19615640550782" height="19.602243960000003"/></g><text fill="black" stroke="none" font-family="sans-serif" font-size="11pt" font-style="normal" font-weight="normal" text-decoration="normal" x="98.01459186228516" y="212.382773982" text-anchor="start" dominant-baseline="alphabetic" xml:space="preserve">returnTournamentPage()</text></g><g><path fill="none" stroke="black" paint-order="fill stroke markers" d=" M 283.09131262585936 218.41423366200002 L 85.02518725221876 218.41423366200002" stroke-miterlimit="10" stroke-width="1.2565541" stroke-dasharray="6.03145968"/><g transform="translate(72.61043274421876,218.41423366200002) translate(-72.61043274421876,-218.41423366200002)"><path fill="black" stroke="none" paint-order="stroke fill markers" d=" M 85.17597374421875 212.13146316200002 L 72.61043274421876 218.41423366200002 L 85.17597374421875 224.697004162 Z"/></g></g><g><g><rect fill="white" stroke="none" x="113.68287871080078" y="241.03220746200003" width="128.33598794847657" height="19.602243960000003"/></g><text fill="black" stroke="none" font-family="sans-serif" font-size="11pt" font-style="normal" font-weight="normal" text-decoration="normal" x="115.94467609080078" y="254.60299174200003" text-anchor="start" dominant-baseline="alphabetic" xml:space="preserve">inviteCollaborator()</text></g><g><path fill="none" stroke="black" paint-order="fill stroke markers" d=" M 72.61043274421876 260.63445142200004 L 270.6765581178594 260.63445142200004" stroke-miterlimit="10" stroke-width="1.2565541" stroke-dasharray=""/><g transform="translate(283.09131262585936,260.63445142200004) translate(-283.09131262585936,-260.63445142200004)"><path fill="black" stroke="none" paint-order="stroke fill markers" d=" M 270.52577162585936 254.35168092200004 L 283.09131262585936 260.63445142200004 L 270.52577162585936 266.91722192200007 Z"/></g></g><g><g><rect fill="white" stroke="none" x="316.01303004585935" y="283.25242522200006" width="129.1518143644922" height="19.602243960000003"/></g><text fill="black" stroke="none" font-family="sans-serif" font-size="11pt" font-style="normal" font-weight="normal" text-decoration="normal" x="318.27482742585937" y="296.82320950200005" text-anchor="start" dominant-baseline="alphabetic" xml:space="preserve">notifyCollaborator()</text></g><g><path fill="none" stroke="black" paint-order="fill stroke markers" d=" M 298.16996182585933 302.85466918200007 L 450.59315812235155 302.85466918200007" stroke-miterlimit="10" stroke-width="1.2565541" stroke-dasharray=""/><g transform="translate(463.00791263035154,302.85466918200007) translate(-463.00791263035154,-302.85466918200007)"><path fill="black" stroke="none" paint-order="stroke fill markers" d=" M 450.44237163035154 296.57189868200004 L 463.00791263035154 302.85466918200007 L 450.44237163035154 309.1374396820001 Z"/></g></g><g><g><rect fill="white" stroke="none" x="164.1853964109961" y="325.4726429820001" width="27.33095254808594" height="19.602243960000003"/></g><text fill="black" stroke="none" font-family="sans-serif" font-size="11pt" font-style="normal" font-weight="normal" text-decoration="normal" x="166.4471937909961" y="339.04342726200014" text-anchor="start" dominant-baseline="alphabetic" xml:space="preserve">ack</text></g><g><path fill="none" stroke="black" paint-order="fill stroke markers" d=" M 283.09131262585936 345.0748869420001 L 85.02518725221876 345.0748869420001" stroke-miterlimit="10" stroke-width="1.2565541" stroke-dasharray="6.03145968"/><g transform="translate(72.61043274421876,345.0748869420001) translate(-72.61043274421876,-345.0748869420001)"><path fill="black" stroke="none" paint-order="stroke fill markers" d=" M 85.17597374421875 338.79211644200007 L 72.61043274421876 345.0748869420001 L 85.17597374421875 351.3576574420001 Z"/></g></g></g><g/><g/><g/></g></svg>