<svg version="1.1" xmlns="http://www.w3.org/2000/svg" xmlns:xlink="http://www.w3.org/1999/xlink" width="459" height="441"><desc>frame%20Leave%20a%20battle%0A%0Aactor%20Student%0Aactivate%20Student%0A%0AStudent-%3ESystem%3A%20requestBattlePage()%0A%0Aactivate%20System%0ASystem--%3EStudent%3A%20show(battle-page)%0Adeactivate%20System%0A%0AStudent-%3ESystem%3A%20leaveBattle()%0Aactivate%20System%0ASystem-%3ESystem%3A%20removeStudent(student)%0AStudent%3C--System%3A%20ack%0A%0Adeactivate%20System%0Adeactivate%20Student%0A</desc><defs/><g><g/><g/><g/><g/><g/><g><rect fill="white" stroke="none" x="0" y="0" width="459" height="441"/></g><g/><g><path fill="none" stroke="black" paint-order="fill stroke markers" d=" M 56.92715672820313 126.434473542 L 56.92715672820313 409.9130785020001" stroke-miterlimit="10" stroke-width="1.2565541" stroke-dasharray="11.598960923076923,5.0262164"/><path fill="none" stroke="black" paint-order="fill stroke markers" d=" M 242.5688543889453 126.434473542 L 242.5688543889453 409.9130785020001" stroke-miterlimit="10" stroke-width="1.2565541" stroke-dasharray="11.598960923076923,5.0262164"/></g><g><g><path fill="white" stroke="black" paint-order="fill stroke markers" d=" M 65.52198677220314 62.65178742599999 A 8.594830044 8.594830044 0 1 1 65.52198247478847 62.643192597388456 M 56.92715672820313 71.24661746999999 L 56.92715672820313 89.64256949399999 M 46.07052930420313 77.881223118 L 67.78378415220313 77.881223118 M 56.92715672820313 89.64256949399999 L 46.07052930420313 106.832229582 M 56.92715672820313 89.64256949399999 L 67.78378415220313 106.832229582" stroke-miterlimit="10" stroke-width="2.5633703640000003" stroke-dasharray=""/></g><g><g/><text fill="black" stroke="none" font-family="sans-serif" font-size="11pt" font-style="normal" font-weight="normal" text-decoration="normal" x="31.665163320000005" y="121.91087878200001" text-anchor="start" dominant-baseline="alphabetic" xml:space="preserve">Student</text></g><path fill="none" stroke="none"/><g><path fill="white" stroke="black" paint-order="fill stroke markers" d=" M 201.77666575889845 85.722120702 L 283.3610430189922 85.722120702 L 283.3610430189922 126.434473542 L 201.77666575889845 126.434473542 L 201.77666575889845 85.722120702 Z" stroke-miterlimit="10" stroke-width="2.4125838720000004" stroke-dasharray=""/></g><g><g/><text fill="black" stroke="none" font-family="sans-serif" font-size="11pt" font-style="normal" font-weight="normal" text-decoration="normal" x="218.13700014089844" y="111.35582434200002" text-anchor="start" dominant-baseline="alphabetic" xml:space="preserve">System</text></g></g><g><path fill="white" stroke="black" paint-order="fill stroke markers" d=" M 49.38783212820313 133.97379814200002 L 64.46648132820313 133.97379814200002 L 64.46648132820313 364.6771309020001 L 49.38783212820313 364.6771309020001 L 49.38783212820313 133.97379814200002" stroke-miterlimit="10" stroke-width="1.2565541" stroke-dasharray=""/><path fill="white" stroke="black" paint-order="fill stroke markers" d=" M 235.0295297889453 176.19401590200002 L 250.10817898894533 176.19401590200002 L 250.10817898894533 218.41423366200002 L 235.0295297889453 218.41423366200002 L 235.0295297889453 176.19401590200002" stroke-miterlimit="10" stroke-width="1.2565541" stroke-dasharray=""/><path fill="white" stroke="black" paint-order="fill stroke markers" d=" M 235.0295297889453 260.63445142200004 L 250.10817898894533 260.63445142200004 L 250.10817898894533 364.6771309020001 L 235.0295297889453 364.6771309020001 L 235.0295297889453 260.63445142200004" stroke-miterlimit="10" stroke-width="1.2565541" stroke-dasharray=""/><g><g/><g/><path fill="none" stroke="black" paint-order="fill stroke markers" d=" M 7.5393246000000005 7.5393246000000005 L 451.5715340657812 7.5393246000000005 L 451.5715340657812 434.0389172220001 L 7.5393246000000005 434.0389172220001 L 7.5393246000000005 7.5393246000000005 Z" stroke-miterlimit="10" stroke-width="1.2565541" stroke-dasharray=""/><path fill="white" stroke="black" paint-order="fill stroke markers" d=" M 7.5393246000000005 7.5393246000000005 L 7.5393246000000005 28.64943348 L 150.9533673847656 28.64943348 L 161.5084218247656 18.09437904 L 161.5084218247656 7.5393246000000005 L 7.5393246000000005 7.5393246000000005" stroke-miterlimit="10" stroke-width="1.2565541" stroke-dasharray=""/><text fill="black" stroke="none" font-family="sans-serif" font-size="11pt" font-style="normal" font-weight="bold" text-decoration="normal" x="22.6179738" y="21.86404134" text-anchor="start" dominant-baseline="alphabetic" xml:space="preserve">sd</text><text fill="black" stroke="none" font-family="sans-serif" font-size="11pt" font-style="normal" font-weight="normal" text-decoration="normal" x="43.79367875605469" y="21.86404134" text-anchor="start" dominant-baseline="alphabetic" xml:space="preserve">Leave a battle</text></g><g><g><rect fill="white" stroke="none" x="82.30954954820312" y="156.591771942" width="134.8769120207422" height="19.602243960000003"/></g><text fill="black" stroke="none" font-family="sans-serif" font-size="11pt" font-style="normal" font-weight="normal" text-decoration="normal" x="84.57134692820313" y="170.162556222" text-anchor="start" dominant-baseline="alphabetic" xml:space="preserve">requestBattlePage()</text></g><g><path fill="none" stroke="black" paint-order="fill stroke markers" d=" M 64.46648132820313 176.19401590200002 L 222.6147752809453 176.19401590200002" stroke-miterlimit="10" stroke-width="1.2565541" stroke-dasharray=""/><g transform="translate(235.0295297889453,176.19401590200002) translate(-235.0295297889453,-176.19401590200002)"><path fill="black" stroke="none" paint-order="stroke fill markers" d=" M 222.4639887889453 169.91124540200002 L 235.0295297889453 176.19401590200002 L 222.4639887889453 182.47678640200002 Z"/></g></g><g><g><rect fill="white" stroke="none" x="88.82900450425781" y="198.811989702" width="121.83800210863281" height="19.602243960000003"/></g><text fill="black" stroke="none" font-family="sans-serif" font-size="11pt" font-style="normal" font-weight="normal" text-decoration="normal" x="91.09080188425781" y="212.382773982" text-anchor="start" dominant-baseline="alphabetic" xml:space="preserve">show(battle-page)</text></g><g><path fill="none" stroke="black" paint-order="fill stroke markers" d=" M 235.0295297889453 218.41423366200002 L 76.88123583620313 218.41423366200002" stroke-miterlimit="10" stroke-width="1.2565541" stroke-dasharray="6.03145968"/><g transform="translate(64.46648132820313,218.41423366200002) translate(-64.46648132820313,-218.41423366200002)"><path fill="black" stroke="none" paint-order="stroke fill markers" d=" M 77.03202232820313 212.13146316200002 L 64.46648132820313 218.41423366200002 L 77.03202232820313 224.697004162 Z"/></g></g><g><g><rect fill="white" stroke="none" x="106.34780333238281" y="241.03220746200003" width="86.80040445238281" height="19.602243960000003"/></g><text fill="black" stroke="none" font-family="sans-serif" font-size="11pt" font-style="normal" font-weight="normal" text-decoration="normal" x="108.60960071238281" y="254.60299174200003" text-anchor="start" dominant-baseline="alphabetic" xml:space="preserve">leaveBattle()</text></g><g><path fill="none" stroke="black" paint-order="fill stroke markers" d=" M 64.46648132820313 260.63445142200004 L 222.6147752809453 260.63445142200004" stroke-miterlimit="10" stroke-width="1.2565541" stroke-dasharray=""/><g transform="translate(235.0295297889453,260.63445142200004) translate(-235.0295297889453,-260.63445142200004)"><path fill="black" stroke="none" paint-order="stroke fill markers" d=" M 222.4639887889453 254.35168092200004 L 235.0295297889453 260.63445142200004 L 222.4639887889453 266.91722192200007 Z"/></g></g><g><g><rect fill="white" stroke="none" x="267.9512472089453" y="283.25242522200006" width="161.75624551683595" height="19.602243960000003"/></g><text fill="black" stroke="none" font-family="sans-serif" font-size="11pt" font-style="normal" font-weight="normal" text-decoration="normal" x="270.2130445889453" y="296.82320950200005" text-anchor="start" dominant-baseline="alphabetic" xml:space="preserve">removeStudent(student)</text></g><g><path fill="none" stroke="black" paint-order="fill stroke markers" d=" M 250.10817898894533 302.85466918200007 L 310.42277578894533 302.85466918200007 L 310.42277578894533 322.4569131420001 L 262.5229334969453 322.4569131420001" stroke-miterlimit="10" stroke-width="1.2565541" stroke-dasharray=""/><g transform="translate(250.10817898894533,322.4569131420001) translate(-250.10817898894533,-322.4569131420001)"><path fill="black" stroke="none" paint-order="stroke fill markers" d=" M 262.6737199889453 316.17414264200005 L 250.10817898894533 322.4569131420001 L 262.6737199889453 328.7396836420001 Z"/></g></g><g><g><rect fill="white" stroke="none" x="136.08252928453126" y="345.0748869420001" width="27.33095254808594" height="19.602243960000003"/></g><text fill="black" stroke="none" font-family="sans-serif" font-size="11pt" font-style="normal" font-weight="normal" text-decoration="normal" x="138.34432666453125" y="358.64567122200015" text-anchor="start" dominant-baseline="alphabetic" xml:space="preserve">ack</text></g><g><path fill="none" stroke="black" paint-order="fill stroke markers" d=" M 235.0295297889453 364.6771309020001 L 76.88123583620313 364.6771309020001" stroke-miterlimit="10" stroke-width="1.2565541" stroke-dasharray="6.03145968"/><g transform="translate(64.46648132820313,364.6771309020001) translate(-64.46648132820313,-364.6771309020001)"><path fill="black" stroke="none" paint-order="stroke fill markers" d=" M 77.03202232820313 358.3943604020001 L 64.46648132820313 364.6771309020001 L 77.03202232820313 370.9599014020001 Z"/></g></g></g><g/><g/></g></svg>